<svg version="1.1" xmlns="http://www.w3.org/2000/svg" xmlns:xlink="http://www.w3.org/1999/xlink" width="1024" height="1024" viewBox="0,0,1024,1024">
	<desc>account_circle icon - Licensed under Apache License v2.0 (http://www.apache.org/licenses/LICENSE-2.0) - Created with Iconfu.com - Derivative work of Material icons (Copyright Google Inc.)</desc>
	<defs>
		<clipPath id="clip-zH01VH9D">
			<path d="M938.67,512c0,235.52 -191.15,426.67 -426.67,426.67c-235.52,0 -426.67,-191.15 -426.67,-426.67c0,-235.52 191.15,-426.67 426.67,-426.67c235.52,0 426.67,191.15 426.67,426.67zM768,681.81c-1.28,-84.91 -171.09,-131.41 -256,-131.41c-85.33,0 -254.72,46.5 -256,131.41c55.04,82.77 149.33,137.39 256,137.39c106.67,0 200.96,-54.62 256,-137.39zM384,341.33c0,70.83 57.17,128 128,128c70.83,0 128,-57.17 128,-128c0,-70.83 -57.17,-128 -128,-128c-70.83,0 -128,57.17 -128,128z" fill="none"/>
		</clipPath>
		<radialGradient cx="0" cy="0" r="1448.15" gradientUnits="userSpaceOnUse" id="color-lXRGg8kt">
			<stop offset="0.07" stop-color="#48f1cf"/>
			<stop offset="0.75" stop-color="#48f1cf" stop-opacity="0"/>
		</radialGradient>
		<linearGradient x1="0" y1="1024" x2="1024" y2="0" gradientUnits="userSpaceOnUse" id="color-O8rWGhft">
			<stop offset="0.2" stop-color="#00aeff"/>
			<stop offset="0.5" stop-color="#c37e84"/>
			<stop offset="0.8" stop-color="#ff0000"/>
		</linearGradient>
		<filter id="filter-UYRoI2T6" x="0%" y="0%" width="100%" height="100%" color-interpolation-filters="sRGB">
			<feColorMatrix values="1 0 0 0 0 0 1 0 0 0 0 0 1 0 0 0 0 0 0.05 0" in="SourceGraphic"/>
			<feOffset dy="20"/>
			<feGaussianBlur stdDeviation="11" result="blur0"/>
			<feColorMatrix values="1 0 0 0 0 0 1 0 0 0 0 0 1 0 0 0 0 0 0.07 0" in="SourceGraphic"/>
			<feOffset dy="30"/>
			<feGaussianBlur stdDeviation="20" result="blur1"/>
			<feMerge>
				<feMergeNode in="blur0"/>
				<feMergeNode in="blur1"/>
			</feMerge>
		</filter>
	</defs>
	<g fill="none" fill-rule="nonzero" style="mix-blend-mode: normal">
		<path d="M938.67,512c0,235.52 -191.15,426.67 -426.67,426.67c-235.52,0 -426.67,-191.15 -426.67,-426.67c0,-235.52 191.15,-426.67 426.67,-426.67c235.52,0 426.67,191.15 426.67,426.67zM768,681.81c-1.28,-84.91 -171.09,-131.41 -256,-131.41c-85.33,0 -254.72,46.5 -256,131.41c55.04,82.77 149.33,137.39 256,137.39c106.67,0 200.96,-54.62 256,-137.39zM384,341.33c0,70.83 57.17,128 128,128c70.83,0 128,-57.17 128,-128c0,-70.83 -57.17,-128 -128,-128c-70.83,0 -128,57.17 -128,128z" fill="url(#color-O8rWGhft)"/>
		<path d="M938.67,512c0,235.52 -191.15,426.67 -426.67,426.67c-235.52,0 -426.67,-191.15 -426.67,-426.67c0,-235.52 191.15,-426.67 426.67,-426.67c235.52,0 426.67,191.15 426.67,426.67zM768,681.81c-1.28,-84.91 -171.09,-131.41 -256,-131.41c-85.33,0 -254.72,46.5 -256,131.41c55.04,82.77 149.33,137.39 256,137.39c106.67,0 200.96,-54.62 256,-137.39zM384,341.33c0,70.83 57.17,128 128,128c70.83,0 128,-57.17 128,-128c0,-70.83 -57.17,-128 -128,-128c-70.83,0 -128,57.17 -128,128z" fill="url(#color-lXRGg8kt)"/>
		<g clip-path="url(#clip-zH01VH9D)">
			<path d="M-7.67,981.67v-1039.34h1039.34v1039.34zM512,85.33c-235.52,0 -426.67,191.15 -426.67,426.67c0,235.52 191.15,426.67 426.67,426.67c235.52,0 426.67,-191.15 426.67,-426.67c0,-235.52 -191.15,-426.67 -426.67,-426.67zM512,819.2c-106.67,0 -200.96,-54.62 -256,-137.39c1.28,-84.91 170.67,-131.41 256,-131.41c84.91,0 254.72,46.5 256,131.41c-55.04,82.77 -149.33,137.39 -256,137.39zM512,213.33c70.83,0 128,57.17 128,128c0,70.83 -57.17,128 -128,128c-70.83,0 -128,-57.17 -128,-128c0,-70.83 57.17,-128 128,-128z" filter="url(#filter-UYRoI2T6)" fill="#000000"/>
		</g>
	</g>
</svg>